<svg width="190" height="37" viewBox="0 0 190 37" fill="none" xmlns="http://www.w3.org/2000/svg">
<path d="M18 36.0498C27.9411 36.0498 36 27.9909 36 18.0498C36 8.10868 27.9411 0.0498047 18 0.0498047C8.05887 0.0498047 0 8.10868 0 18.0498C0 27.9909 8.05887 36.0498 18 36.0498Z" fill="#2E3C57"/>
<path d="M29.3451 24.3069C29.3451 24.9198 29.3439 25.1116 29.3429 25.1556C29.3444 25.2355 29.3472 25.4521 29.3522 25.974C29.3575 26.508 28.7857 27.0753 28.2629 27.1069C27.5203 27.1514 26.9351 26.56 26.936 25.7609C26.9396 23.4725 26.9409 26.1843 26.94 23.8963C26.94 22.8106 26.9436 21.7248 26.94 20.6387C26.94 20.2902 26.9436 19.9369 26.8893 19.5947C26.835 19.2526 26.722 18.9113 26.6103 18.5775C26.4007 17.9492 26.0234 17.4206 25.5588 16.9574C25.0704 16.4708 24.4815 16.0969 23.8334 15.8619C23.1853 15.6268 22.4936 15.5363 21.8068 15.5967C21.0917 15.6621 20.4022 15.8954 19.7942 16.2775C19.2099 16.6361 18.7114 17.1185 18.3338 17.6907C17.9819 18.2251 17.7374 18.8228 17.6138 19.4506C17.5213 19.9142 17.5284 20.3752 17.528 20.8389C17.5244 23.4042 17.528 20.969 17.5235 23.5342C17.5235 23.9441 17.6388 24.2907 17.9431 24.5706C18.534 25.1121 19.5864 24.9381 19.9175 24.1256C20.0122 23.8933 20.0194 23.6633 20.0194 23.4279C20.022 20.4362 20.022 22.4445 20.0194 19.4528C20.0194 19.0136 20.1386 18.6265 20.5013 18.3439C21.0717 17.899 21.8286 18.0387 22.234 18.6056C22.3973 18.8338 22.4507 19.0902 22.4502 19.37L22.4396 23.86C22.4289 24.5052 22.2064 25.0903 21.8611 25.63C21.4564 26.258 20.8691 26.7469 20.1782 27.0311C19.5136 27.3044 18.7608 27.3696 18.0552 27.2305C18.0273 27.225 17.9993 27.2191 17.9715 27.213C17.7672 27.1677 17.5663 27.1049 17.371 27.0245C16.6801 26.7404 16.0928 26.2514 15.688 25.6235C15.3427 25.0838 15.1203 24.4986 15.1096 23.8534L15.1046 22.4547V20.6369C15.1017 20.1007 15.1406 19.5651 15.2208 19.035C15.2991 18.6016 15.426 18.1785 15.599 17.7735C15.7867 17.3051 16.0115 16.8524 16.2714 16.4199C16.589 15.9084 16.9787 15.4454 17.4283 15.0449C18.0207 14.5082 18.695 14.0695 19.4258 13.7456C20.552 13.2423 21.7294 13.1373 22.941 13.2156C23.4047 13.24 23.8629 13.3265 24.3035 13.4728C24.8103 13.6551 25.3041 13.8714 25.7817 14.1203C26.3006 14.3824 26.7518 14.7517 27.1692 15.153C27.5984 15.5665 27.9746 16.0316 28.2892 16.5378C28.5808 17.0044 28.8169 17.5035 28.9927 18.0249C29.103 18.3519 29.1511 18.6995 29.2378 19.035C29.3985 19.6579 29.3322 20.2911 29.3366 20.9203C29.346 22.3829 29.3393 22.8456 29.3393 24.3082L29.3451 24.3069Z" fill="#8F86E0"/>
<path d="M7.21611 23.3552C7.21611 21.55 7.20543 21.7443 7.22457 19.9386C7.22768 19.6445 7.28464 19.2422 7.40256 18.7309C7.62338 17.7826 8.02875 16.8871 8.59553 16.0954C9.13856 15.3492 9.82225 14.7165 10.6081 14.2327C11.1144 13.919 11.6591 13.6721 12.2287 13.4981C12.4819 13.425 12.7428 13.3821 13.0061 13.3704C13.4542 13.3441 13.9201 13.7708 14.0705 14.1735C14.2978 14.7778 13.9209 15.4439 13.403 15.6713C13.1827 15.7679 12.9433 15.8204 12.7155 15.8996C12.0694 16.1279 11.4852 16.5032 11.0091 16.996C10.585 17.4245 10.2397 17.9037 10.0096 18.4582C9.89885 18.7251 9.83967 19.0144 9.75201 19.2916C9.59671 19.7811 9.64344 20.2897 9.64255 20.7911C9.63869 24.1252 9.63869 22.4595 9.64255 25.7941C9.64255 26.2836 9.47657 26.6921 9.04495 26.9586C8.51098 27.287 7.76343 27.1366 7.41813 26.5773C7.27628 26.3461 7.20413 26.079 7.21033 25.8079C7.21567 23.9911 7.213 25.1743 7.213 23.3574L7.21611 23.3552Z" fill="#5C95B2"/>
<path d="M25.3296 9.2147C25.3296 7.54973 23.9795 6.20001 22.3145 6.20001C20.6495 6.20001 19.2998 7.55018 19.2998 9.21514C19.2998 10.8801 20.65 12.2298 22.3149 12.2298C23.9799 12.2298 25.3296 10.8797 25.3296 9.2147Z" fill="#BFBDFF"/>
<path d="M13.689 6.20001H13.6885C12.0235 6.20001 10.6738 7.54973 10.6738 9.2147V9.21514C10.6738 10.8801 12.0235 12.2298 13.6885 12.2298H13.689C15.3539 12.2298 16.7036 10.8801 16.7036 9.21514V9.2147C16.7036 7.54973 15.3539 6.20001 13.689 6.20001Z" fill="#83DBE7"/>
<path d="M18.2405 36C28.0491 36 36.0005 28.0486 36.0005 18.24C36.0005 8.43141 28.0491 0.47998 18.2405 0.47998C8.4319 0.47998 0.480469 8.43141 0.480469 18.24C0.480469 28.0486 8.4319 36 18.2405 36Z" fill="#2E3C57"/>
<path d="M28.6738 24.2206C28.6738 26.0843 28.6628 27.9485 28.6808 29.8122C28.6861 30.339 28.1219 30.8988 27.606 30.93C26.8733 30.9739 26.2959 30.3904 26.2968 29.6019C26.3003 27.3441 26.3017 25.0864 26.3008 22.8288C26.3008 21.7576 26.3043 20.6863 26.3008 19.6146C26.3008 19.2709 26.3043 18.9223 26.2507 18.5846C26.1972 18.247 26.0856 17.9103 25.9754 17.581C25.7687 16.9611 25.3964 16.4395 24.938 15.9825C24.4561 15.5024 23.875 15.1335 23.2356 14.9016C22.5961 14.6696 21.9136 14.5803 21.236 14.6399C20.5305 14.7045 19.8501 14.9346 19.2502 15.3116C18.6737 15.6654 18.1818 16.1414 17.8093 16.706C17.4621 17.2332 17.2209 17.823 17.099 18.4424C17.0076 18.8999 17.0147 19.3547 17.0142 19.8122C17.0107 22.3433 17.0142 24.8739 17.0098 27.4049C17.0098 27.8093 17.1235 28.1513 17.4238 28.4275C18.0069 28.9618 19.0452 28.7901 19.3719 27.9884C19.4654 27.7592 19.4724 27.5323 19.4724 27.3C19.475 24.3482 19.475 21.3964 19.4724 18.4446C19.4724 18.0113 19.5901 17.6293 19.9479 17.3505C20.5107 16.9115 21.2575 17.0493 21.6575 17.6087C21.8186 17.8339 21.8713 18.0868 21.8709 18.3629C21.8665 20.6257 21.8656 22.8887 21.8682 25.1518C21.8682 26.0101 21.8748 26.8684 21.8603 27.7263C21.8498 28.3629 21.6303 28.9403 21.2896 29.4728C20.8903 30.0924 20.3108 30.5748 19.6291 30.8551C18.9474 31.1355 18.1962 31.2004 17.4765 31.0411C16.5379 30.833 15.8082 30.321 15.2646 29.5413C14.9714 29.1194 14.7483 28.6553 14.697 28.1333C14.6588 27.743 14.6245 27.3509 14.6232 26.9593C14.6165 24.5104 14.6165 22.0615 14.6232 19.6129C14.6203 19.0839 14.6586 18.5554 14.7378 18.0323C14.8151 17.6048 14.9403 17.1872 15.111 16.7877C15.2962 16.3255 15.518 15.8789 15.7744 15.4521C16.0878 14.9475 16.4723 14.4906 16.9159 14.0955C17.5003 13.5659 18.1657 13.1331 18.8867 12.8135C19.9979 12.3169 21.1596 12.2133 22.3551 12.2906C22.8126 12.3146 23.2647 12.3999 23.6995 12.5443C24.1994 12.7242 24.6867 12.9376 25.158 13.1831C25.6699 13.4417 26.1151 13.8061 26.5269 14.2022C26.9504 14.6101 27.3215 15.069 27.6319 15.5684C27.9197 16.0288 28.1527 16.5212 28.3261 17.0357C28.4349 17.3584 28.4824 17.7013 28.568 18.0323C28.7265 18.647 28.661 19.2717 28.6654 19.8925C28.6747 21.3357 28.6681 22.7788 28.6681 24.2219L28.6738 24.2206Z" fill="#8F86DF"/>
<path d="M7.80685 24.2487C7.80685 22.4675 7.79632 20.6859 7.81519 18.9043C7.81827 18.6141 7.87446 18.2172 7.99081 17.7127C8.20869 16.7771 8.60865 15.8935 9.16787 15.1123C9.70366 14.3761 10.3782 13.7518 11.1536 13.2745C11.6532 12.965 12.1906 12.7214 12.7526 12.5496C13.0024 12.4775 13.2599 12.4352 13.5196 12.4236C13.9617 12.3977 14.4214 12.8188 14.5698 13.2161C14.7942 13.8123 14.4223 14.4695 13.9113 14.6939C13.6939 14.7892 13.4577 14.841 13.2329 14.9191C12.5955 15.1444 12.0191 15.5147 11.5492 16.0009C11.1308 16.4237 10.7901 16.8966 10.5631 17.4436C10.4538 17.707 10.3954 17.9924 10.3089 18.2659C10.1557 18.7489 10.2018 19.2507 10.2009 19.7455C10.1971 23.0351 10.1971 26.3249 10.2009 29.6151C10.2009 30.098 10.0372 30.5011 9.6113 30.764C9.08446 31.0881 8.34687 30.9397 8.00618 30.3878C7.86622 30.1597 7.79503 29.8962 7.80114 29.6287C7.80641 27.8361 7.80378 26.0435 7.80378 24.2509L7.80685 24.2487Z" fill="#83DBE7"/>
<path d="M22.1947 5.34888H22.1942C20.5515 5.34888 19.2197 6.6806 19.2197 8.32337V8.32381C19.2197 9.96657 20.5515 11.2983 22.1942 11.2983H22.1947C23.8374 11.2983 25.1691 9.96657 25.1691 8.32381V8.32337C25.1691 6.6806 23.8374 5.34888 22.1947 5.34888Z" fill="#BFBDFF"/>
<path d="M14.1927 5.34888H14.1923C12.5495 5.34888 11.2178 6.6806 11.2178 8.32337V8.32381C11.2178 9.96657 12.5495 11.2983 14.1923 11.2983H14.1927C15.8355 11.2983 17.1672 9.96657 17.1672 8.32381V8.32337C17.1672 6.6806 15.8355 5.34888 14.1927 5.34888Z" fill="#5C95B2"/>
<path d="M55.4346 19.3907C53.0192 19.3907 51.1773 18.7192 49.909 17.3763C48.6406 16.0333 48.0043 13.9662 48 11.1749C48 9.41442 48.353 7.94378 49.0589 6.76296C49.7022 5.63622 50.6573 4.71925 51.8093 4.12227C52.9161 3.55679 54.1412 3.26177 55.384 3.26141C57.8827 3.26141 59.7515 3.94867 60.9904 5.32317C62.2293 6.69768 62.8524 8.76052 62.8595 11.5117C62.8595 13.2377 62.5313 14.689 61.8749 15.8655C61.2687 16.993 60.3384 17.9128 59.2041 18.5062C58.0383 19.1033 56.7444 19.407 55.4346 19.3907ZM50.207 11.1749C50.207 12.6814 50.447 13.8966 50.9269 14.8206C51.3316 15.6673 51.9974 16.3617 52.8262 16.8017C53.6637 17.2087 54.5854 17.4125 55.5164 17.3967C56.445 17.4231 57.3687 17.2545 58.2281 16.9017C59.0122 16.5379 59.6393 15.9043 59.995 15.1165C60.4254 14.2463 60.6407 13.0447 60.6407 11.5117C60.6407 10.0052 60.3978 8.78993 59.9122 7.86594C59.5077 7.01217 58.8365 6.31307 58 5.87412C57.1717 5.46035 56.256 5.25182 55.3302 5.26614C54.3942 5.24042 53.4632 5.41238 52.5981 5.77082C51.8173 6.14115 51.1948 6.77857 50.843 7.56787C50.4212 8.43016 50.2092 9.6325 50.207 11.1749Z" fill="#2E3C57"/>
<path d="M66.6457 21.0726H64.5V5.99789H66.6522L66.1937 10.6498L66.409 10.6702C66.6643 8.96571 67.2117 7.70705 68.051 6.89426C68.8904 6.08146 70.0533 5.67435 71.5397 5.67291C73.0677 5.67291 74.2693 6.22745 75.1445 7.33652C76.0197 8.4456 76.453 10.1634 76.4444 12.4899C76.4444 14.1954 76.2421 15.2263 75.8386 16.2389C75.4351 17.2515 74.8701 17.9606 74.1341 18.3846C73.3029 18.8343 72.3669 19.0542 71.4224 19.0216H68.234V17.1493H70.7251C72.0584 17.1493 72.8148 17.0029 73.4045 16.1593C73.9942 15.3156 74.2245 14.4634 74.2245 12.7858C74.2245 10.9521 73.9228 9.60668 73.3195 8.74941C72.7162 7.89214 71.771 7.46171 70.4841 7.45812C69.7801 7.44994 69.091 7.66133 68.5127 8.06288C67.8993 8.50402 67.423 9.10941 67.1385 9.80935C66.7837 10.6713 66.6125 11.5978 66.636 12.5297L66.6457 21.0726Z" fill="#2E3C57"/>
<path d="M79.6736 12.4081C79.6734 12.7906 79.6943 13.1729 79.7361 13.5531L87.6839 11.2847C87.5132 9.90947 87.0828 8.93096 86.3927 8.34917C85.7025 7.76737 84.8001 7.47683 83.6853 7.47755C83.1515 7.46075 82.62 7.5538 82.1238 7.75094C81.6275 7.94808 81.177 8.2451 80.8003 8.62357C80.0492 9.37395 79.6736 10.6355 79.6736 12.4081ZM89.8813 17.1493V19.0195H84.1695C82.0173 19.0195 80.3742 18.7903 79.2303 17.6443C78.0864 16.4983 77.5215 14.7497 77.5215 12.4081C77.4919 11.1559 77.7973 9.91845 78.406 8.82372C78.9541 7.8513 79.7516 7.04265 80.7164 6.4811C81.6141 5.95393 82.6355 5.67398 83.6766 5.66974C85.4852 5.66974 86.9368 6.13891 88.0315 7.07725C89.1262 8.01558 89.7428 9.45035 89.8813 11.3815L88.0799 11.897L88.0111 11.9164L79.8544 14.2654C80.3473 16.4079 81.7817 17.1504 84.1856 17.1504L89.8813 17.1493Z" fill="#2E3C57"/>
<path d="M160.328 12.4081C160.327 12.7906 160.348 13.1729 160.39 13.5531L168.342 11.2847C168.171 9.90947 167.74 8.93096 167.051 8.34917C166.361 7.76737 165.459 7.47683 164.344 7.47755C163.81 7.46041 163.278 7.5533 162.781 7.75044C162.284 7.94758 161.832 8.24477 161.455 8.62357C160.705 9.37395 160.329 10.6355 160.328 12.4081ZM170.536 17.1493V19.0195H164.824C162.672 19.0195 161.03 18.7903 159.886 17.6443C158.742 16.4983 158.181 14.754 158.181 12.4081C158.152 11.1559 158.457 9.91864 159.065 8.82372C159.614 7.85152 160.411 7.04294 161.375 6.4811C162.274 5.95379 163.295 5.67384 164.337 5.66974C166.145 5.66974 167.597 6.13891 168.691 7.07725C169.785 8.01558 170.401 9.45035 170.54 11.3815L168.739 11.897L168.67 11.9164L160.514 14.2654C161.006 16.4079 162.442 17.1504 164.846 17.1504L170.536 17.1493Z" fill="#5C95B2"/>
<path d="M101.172 19.0194V12.3036C101.172 11.0912 101.038 10.1364 100.771 9.43907C100.565 8.80979 100.139 8.2764 99.5698 7.93795C98.9329 7.61188 98.2231 7.45408 97.508 7.47954C96.7677 7.46657 96.042 7.68638 95.4334 8.10797C94.8003 8.56446 94.3141 9.19572 94.0345 9.92438C93.678 10.8366 93.5075 11.8109 93.533 12.79V19.0118H91.3809V6.0107H93.533L93.1822 10.9079L93.3673 10.9284C93.6019 9.56533 93.9548 8.50145 94.4262 7.73672C94.8222 7.0382 95.4232 6.47815 96.1479 6.13229C96.9219 5.81064 97.7547 5.65449 98.5927 5.67388C99.4945 5.64252 100.388 5.85874 101.175 6.29908C101.868 6.7123 102.394 7.387 102.756 8.32318C103.118 9.25937 103.303 10.4915 103.311 12.0195V19.0237L101.172 19.0194Z" fill="#2E3C57"/>
<path d="M105.354 19.0195V3.61652H109.183L114.833 16.9598H115.101L120.726 3.61652H124.568V19.0195H122.501V5.66967H122.26L116.462 19.0195H113.482L107.642 5.66967H107.413V19.0195H105.354Z" fill="#5C95B2"/>
<path d="M127.96 5.70206C127.566 5.73392 127.173 5.63686 126.839 5.42551C126.716 5.30838 126.621 5.16539 126.56 5.00692C126.5 4.8483 126.476 4.67785 126.491 4.50869C126.475 4.3367 126.498 4.16324 126.558 4.00129C126.618 3.83935 126.714 3.69313 126.839 3.57359C127.073 3.38133 127.447 3.28484 127.96 3.28412C128.474 3.28341 128.856 3.37989 129.106 3.57359C129.231 3.69311 129.328 3.83924 129.388 4.00112C129.449 4.16301 129.473 4.33649 129.457 4.50869C129.472 4.67809 129.448 4.8486 129.387 5.0074C129.326 5.1662 129.23 5.30916 129.106 5.42551C128.867 5.60844 128.488 5.70206 127.96 5.70206ZM126.892 6.67914C127.226 6.83505 127.591 6.91585 127.96 6.91585C128.329 6.91585 128.693 6.83505 129.028 6.67914V18.9991H126.892V6.67914Z" fill="#5C95B2"/>
<path d="M141.01 19.0194V12.3036C141.01 11.0912 140.876 10.1364 140.609 9.43908C140.403 8.80938 139.975 8.27597 139.405 7.93796C138.769 7.6112 138.059 7.45336 137.343 7.47955C136.607 7.46848 135.886 7.68823 135.281 8.10798C134.648 8.56447 134.161 9.19573 133.882 9.92439C133.525 10.8365 133.354 11.8108 133.379 12.79V19.0118H131.232V6.01071H133.379L133.028 10.9079L133.215 10.9284C133.445 9.56534 133.797 8.50146 134.271 7.73673C134.667 7.03829 135.268 6.47827 135.993 6.1323C136.767 5.81065 137.601 5.65451 138.439 5.67389C139.341 5.64247 140.234 5.8587 141.021 6.29909C141.714 6.71231 142.242 7.38701 142.603 8.32319C142.965 9.25938 143.15 10.4915 143.157 12.0195V19.0237L141.01 19.0194Z" fill="#5C95B2"/>
<path d="M152.759 19.0194H149.598C148.059 19.0194 146.851 18.4648 145.973 17.3557C145.105 16.2463 144.669 14.8625 144.669 12.5425C144.669 10.838 144.868 9.48211 145.265 8.4749C145.663 7.46769 146.231 6.75031 146.971 6.32275C147.807 5.86821 148.75 5.64532 149.702 5.6771C150.466 5.66786 151.224 5.81431 151.929 6.10753C152.611 6.39062 153.201 6.85602 153.635 7.45263C154.132 8.13986 154.447 8.94162 154.552 9.7834L154.755 9.76296L154.469 6.35611V3.60889H156.621V19.0237H154.469V10.3935C154.115 9.37988 153.609 8.63021 152.949 8.14454C152.289 7.64944 151.482 7.3889 150.657 7.4042C149.329 7.4042 148.368 7.81921 147.772 8.64922C147.177 9.47924 146.883 10.7113 146.89 12.3455C146.89 13.6035 146.931 14.1383 147.19 14.94C147.427 15.6457 147.887 16.2552 148.501 16.6767C149.049 17.0598 149.757 17.1491 150.628 17.1491H152.771L152.759 19.0194Z" fill="#5C95B2"/>
<path d="M174.605 5.7676L174.247 11.1189L174.436 11.1394C174.633 9.81364 174.952 8.75514 175.395 7.96387C175.838 7.17259 176.396 6.60335 177.07 6.25614C177.745 5.90964 178.554 5.73639 179.495 5.73639C179.72 5.73639 179.889 5.73639 180 5.74607L179.937 8.39107C179.829 8.38461 179.674 8.38031 179.464 8.38031C177.847 8.38031 176.67 8.73111 175.933 9.43271C175.195 10.1343 174.83 11.2204 174.836 12.6911V19.0109H172.191V5.7676H174.605Z" fill="#5C95B2"/>
<path opacity="0.5" d="M51.905 33.11C51.4723 33.11 51.0617 33.0367 50.673 32.89C50.2843 32.736 49.9397 32.5013 49.639 32.186C49.3383 31.8633 49.1 31.4563 48.924 30.965C48.748 30.4737 48.66 29.887 48.66 29.205V28.985C48.66 28.325 48.748 27.7567 48.924 27.28C49.1 26.8033 49.3383 26.411 49.639 26.103C49.9397 25.795 50.2843 25.5677 50.673 25.421C51.0617 25.267 51.4723 25.19 51.905 25.19C52.323 25.19 52.7043 25.245 53.049 25.355C53.401 25.465 53.709 25.6227 53.973 25.828C54.237 26.0333 54.4497 26.2863 54.611 26.587C54.7797 26.8877 54.886 27.2287 54.93 27.61H53.83C53.7273 27.1113 53.511 26.7373 53.181 26.488C52.851 26.2387 52.4257 26.114 51.905 26.114C51.6337 26.114 51.3697 26.1653 51.113 26.268C50.8563 26.3707 50.6253 26.5357 50.42 26.763C50.222 26.983 50.0607 27.2763 49.936 27.643C49.8187 28.0097 49.76 28.457 49.76 28.985V29.205C49.76 29.7623 49.826 30.2317 49.958 30.613C50.09 30.987 50.2587 31.2913 50.464 31.526C50.6693 31.7607 50.9003 31.9293 51.157 32.032C51.4137 32.1347 51.663 32.186 51.905 32.186C52.477 32.186 52.9243 32.0467 53.247 31.768C53.5697 31.4893 53.764 31.13 53.83 30.69H54.93C54.8713 31.1153 54.754 31.482 54.578 31.79C54.402 32.0907 54.1783 32.34 53.907 32.538C53.643 32.736 53.3387 32.8827 52.994 32.978C52.6567 33.066 52.2937 33.11 51.905 33.11ZM56.3566 27.17H57.3906L59.4696 30.8L61.5486 27.17H62.5166V33H61.5486V28.765L59.8216 31.735H59.0516L57.3246 28.765V33H56.3566V27.17ZM66.6936 33.11C66.3196 33.11 65.9639 33.0513 65.6266 32.934C65.2892 32.8093 64.9922 32.626 64.7356 32.384C64.4789 32.1347 64.2736 31.823 64.1196 31.449C63.9656 31.075 63.8886 30.6387 63.8886 30.14V29.92C63.8886 29.4507 63.9656 29.0363 64.1196 28.677C64.2736 28.3177 64.4789 28.0207 64.7356 27.786C64.9922 27.544 65.2892 27.3643 65.6266 27.247C65.9639 27.1223 66.3196 27.06 66.6936 27.06C67.0676 27.06 67.4232 27.1223 67.7606 27.247C68.0979 27.3643 68.3949 27.544 68.6516 27.786C68.9082 28.0207 69.1136 28.3177 69.2676 28.677C69.4216 29.0363 69.4986 29.4507 69.4986 29.92V30.14C69.4986 30.6387 69.4216 31.075 69.2676 31.449C69.1136 31.823 68.9082 32.1347 68.6516 32.384C68.3949 32.626 68.0979 32.8093 67.7606 32.934C67.4232 33.0513 67.0676 33.11 66.6936 33.11ZM66.6936 32.23C66.9136 32.23 67.1336 32.1933 67.3536 32.12C67.5736 32.0393 67.7679 31.9183 67.9366 31.757C68.1052 31.5883 68.2409 31.372 68.3436 31.108C68.4536 30.844 68.5086 30.5213 68.5086 30.14V29.92C68.5086 29.568 68.4536 29.2673 68.3436 29.018C68.2409 28.7687 68.1052 28.5633 67.9366 28.402C67.7679 28.2407 67.5736 28.1233 67.3536 28.05C67.1336 27.9767 66.9136 27.94 66.6936 27.94C66.4736 27.94 66.2536 27.9767 66.0336 28.05C65.8136 28.1233 65.6192 28.2407 65.4506 28.402C65.2819 28.5633 65.1426 28.7687 65.0326 29.018C64.9299 29.2673 64.8786 29.568 64.8786 29.92V30.14C64.8786 30.5213 64.9299 30.844 65.0326 31.108C65.1426 31.372 65.2819 31.5883 65.4506 31.757C65.6192 31.9183 65.8136 32.0393 66.0336 32.12C66.2536 32.1933 66.4736 32.23 66.6936 32.23ZM72.0928 28.028H70.1018V27.17H75.0518V28.028H73.0608V33H72.0928V28.028ZM76.1544 27.17H77.0564V28.27C77.2544 27.8813 77.5294 27.5843 77.8814 27.379C78.2407 27.1663 78.6551 27.06 79.1244 27.06C79.8577 27.06 80.4444 27.302 80.8844 27.786C81.3244 28.2627 81.5444 28.974 81.5444 29.92V30.14C81.5444 30.6387 81.4857 31.075 81.3684 31.449C81.2511 31.8157 81.0861 32.1237 80.8734 32.373C80.6607 32.615 80.4041 32.7983 80.1034 32.923C79.8101 33.0477 79.4837 33.11 79.1244 33.11C78.6257 33.11 78.2077 33 77.8704 32.78C77.5404 32.56 77.2911 32.285 77.1224 31.955V35.2H76.1544V27.17ZM78.9044 32.252C79.1391 32.252 79.3591 32.208 79.5644 32.12C79.7697 32.0247 79.9457 31.889 80.0924 31.713C80.2464 31.537 80.3637 31.317 80.4444 31.053C80.5324 30.789 80.5764 30.4847 80.5764 30.14V29.92C80.5764 29.6047 80.5324 29.3223 80.4444 29.073C80.3637 28.8237 80.2464 28.6147 80.0924 28.446C79.9457 28.27 79.7697 28.138 79.5644 28.05C79.3591 27.962 79.1391 27.918 78.9044 27.918C78.6404 27.918 78.3984 27.962 78.1784 28.05C77.9584 28.1307 77.7714 28.248 77.6174 28.402C77.4634 28.5487 77.3424 28.7247 77.2544 28.93C77.1664 29.1353 77.1224 29.3553 77.1224 29.59V30.47C77.1224 30.734 77.1664 30.976 77.2544 31.196C77.3424 31.416 77.4634 31.603 77.6174 31.757C77.7714 31.911 77.9584 32.032 78.1784 32.12C78.3984 32.208 78.6404 32.252 78.9044 32.252ZM82.922 27.17H83.89V31.57L86.904 27.17H87.872V33H86.904V28.6L83.89 33H82.922V27.17ZM89.8009 33V31.79H91.0109V33L89.9109 34.65H89.3609L89.8009 33ZM96.4537 35.31C96.3437 35.31 96.2337 35.299 96.1237 35.277V34.397C96.2337 34.419 96.3437 34.43 96.4537 34.43C96.5637 34.43 96.659 34.4117 96.7397 34.375C96.8204 34.3383 96.8974 34.2687 96.9707 34.166C97.044 34.0633 97.121 33.9167 97.2017 33.726C97.2897 33.5427 97.3887 33.3007 97.4987 33L95.0237 27.17H96.1017L97.9937 31.9L99.7097 27.17H100.744L98.5437 33C98.3897 33.4107 98.243 33.7627 98.1037 34.056C97.9644 34.3493 97.814 34.5877 97.6527 34.771C97.4987 34.9617 97.3264 35.0973 97.1357 35.178C96.945 35.266 96.7177 35.31 96.4537 35.31ZM105.323 30.679C105.155 30.7817 104.949 30.8733 104.707 30.954C104.473 31.0347 104.176 31.075 103.816 31.075C103.479 31.075 103.175 31.0383 102.903 30.965C102.639 30.8917 102.416 30.7743 102.232 30.613C102.049 30.4517 101.91 30.2427 101.814 29.986C101.719 29.7293 101.671 29.414 101.671 29.04V27.17H102.639V28.875C102.639 29.1243 102.661 29.3333 102.705 29.502C102.757 29.6707 102.837 29.8063 102.947 29.909C103.057 30.0117 103.197 30.085 103.365 30.129C103.534 30.173 103.739 30.195 103.981 30.195C104.311 30.195 104.594 30.162 104.828 30.096C105.063 30.03 105.228 29.9603 105.323 29.887V27.17H106.291V33H105.323V30.679ZM108.048 27.17H109.016V31.57L112.03 27.17H112.998V33H112.03V28.6L109.016 33H108.048V27.17ZM117.017 33.11C116.643 33.11 116.295 33.0513 115.972 32.934C115.649 32.8093 115.371 32.626 115.136 32.384C114.901 32.1347 114.714 31.823 114.575 31.449C114.443 31.075 114.377 30.6387 114.377 30.14V29.92C114.377 29.4507 114.45 29.0363 114.597 28.677C114.744 28.3177 114.938 28.0207 115.18 27.786C115.422 27.544 115.701 27.3643 116.016 27.247C116.339 27.1223 116.672 27.06 117.017 27.06C117.362 27.06 117.67 27.1077 117.941 27.203C118.22 27.2983 118.458 27.4303 118.656 27.599C118.861 27.7677 119.026 27.9657 119.151 28.193C119.283 28.4203 119.378 28.666 119.437 28.93H118.447C118.388 28.7907 118.319 28.6623 118.238 28.545C118.165 28.4203 118.069 28.314 117.952 28.226C117.842 28.138 117.71 28.0683 117.556 28.017C117.402 27.9657 117.222 27.94 117.017 27.94C116.804 27.94 116.599 27.9803 116.401 28.061C116.203 28.1343 116.027 28.2517 115.873 28.413C115.719 28.567 115.594 28.7687 115.499 29.018C115.411 29.2673 115.367 29.568 115.367 29.92V30.14C115.367 30.514 115.411 30.8367 115.499 31.108C115.594 31.372 115.719 31.5883 115.873 31.757C116.027 31.9183 116.203 32.0393 116.401 32.12C116.599 32.1933 116.804 32.23 117.017 32.23C117.376 32.23 117.677 32.142 117.919 31.966C118.168 31.79 118.344 31.548 118.447 31.24H119.437C119.298 31.8193 119.012 32.2777 118.579 32.615C118.146 32.945 117.626 33.11 117.017 33.11ZM120.756 27.17H121.724V29.37H123.121C123.854 29.37 124.393 29.5313 124.738 29.854C125.09 30.1767 125.266 30.624 125.266 31.196C125.266 31.7533 125.09 32.1933 124.738 32.516C124.393 32.8387 123.854 33 123.121 33H120.756V27.17ZM123.066 32.142C123.521 32.142 123.84 32.0613 124.023 31.9C124.206 31.7387 124.298 31.5003 124.298 31.185C124.298 30.8697 124.206 30.6313 124.023 30.47C123.84 30.3087 123.521 30.228 123.066 30.228H121.724V32.142H123.066ZM126.7 33V31.79H127.91V33L126.81 34.65H126.26L126.7 33ZM131.923 32.142H132.638C132.719 32.032 132.792 31.8633 132.858 31.636C132.924 31.4087 132.983 31.141 133.034 30.833C133.085 30.525 133.122 30.1913 133.144 29.832C133.173 29.4653 133.188 29.0913 133.188 28.71V27.17H137.258V32.142H138.083V34.375H137.159V33H132.847V34.375H131.923V32.142ZM136.29 32.142V28.028H134.134V28.93C134.134 29.238 134.123 29.546 134.101 29.854C134.079 30.1547 134.046 30.4443 134.002 30.723C133.958 30.9943 133.903 31.2547 133.837 31.504C133.778 31.746 133.709 31.9587 133.628 32.142H136.29ZM141.663 33.11C141.289 33.11 140.934 33.0513 140.596 32.934C140.259 32.8167 139.962 32.637 139.705 32.395C139.449 32.1457 139.243 31.834 139.089 31.46C138.935 31.086 138.858 30.646 138.858 30.14V29.92C138.858 29.436 138.932 29.018 139.078 28.666C139.225 28.3067 139.419 28.0097 139.661 27.775C139.911 27.533 140.197 27.3533 140.519 27.236C140.849 27.1187 141.194 27.06 141.553 27.06C142.411 27.06 143.075 27.2947 143.544 27.764C144.014 28.2333 144.248 28.897 144.248 29.755V30.371H139.826C139.826 30.7157 139.881 31.0053 139.991 31.24C140.101 31.4747 140.244 31.6653 140.42 31.812C140.596 31.9587 140.791 32.065 141.003 32.131C141.223 32.197 141.443 32.23 141.663 32.23C142.103 32.23 142.441 32.1567 142.675 32.01C142.917 31.8633 143.09 31.6617 143.192 31.405H144.138C144.08 31.6837 143.973 31.9293 143.819 32.142C143.673 32.3547 143.489 32.5343 143.269 32.681C143.057 32.8203 142.811 32.9267 142.532 33C142.261 33.0733 141.971 33.11 141.663 33.11ZM141.608 27.94C141.381 27.94 141.161 27.973 140.948 28.039C140.736 28.0977 140.545 28.1967 140.376 28.336C140.215 28.468 140.083 28.6367 139.98 28.842C139.878 29.0473 139.826 29.293 139.826 29.579H143.335C143.328 29.2783 143.277 29.0253 143.181 28.82C143.093 28.6073 142.972 28.4387 142.818 28.314C142.664 28.182 142.481 28.0867 142.268 28.028C142.063 27.9693 141.843 27.94 141.608 27.94ZM145.624 27.17H146.592V31.57L149.606 27.17H150.574V33H149.606V28.6L146.592 33H145.624V27.17ZM148.099 26.455C147.527 26.455 147.109 26.334 146.845 26.092C146.581 25.8427 146.449 25.487 146.449 25.025H147.395C147.395 25.5237 147.63 25.773 148.099 25.773C148.583 25.773 148.825 25.5237 148.825 25.025H149.749C149.749 25.487 149.617 25.8427 149.353 26.092C149.089 26.334 148.671 26.455 148.099 26.455ZM154.593 33.11C154.219 33.11 153.871 33.0513 153.548 32.934C153.225 32.8093 152.947 32.626 152.712 32.384C152.477 32.1347 152.29 31.823 152.151 31.449C152.019 31.075 151.953 30.6387 151.953 30.14V29.92C151.953 29.4507 152.026 29.0363 152.173 28.677C152.32 28.3177 152.514 28.0207 152.756 27.786C152.998 27.544 153.277 27.3643 153.592 27.247C153.915 27.1223 154.248 27.06 154.593 27.06C154.938 27.06 155.246 27.1077 155.517 27.203C155.796 27.2983 156.034 27.4303 156.232 27.599C156.437 27.7677 156.602 27.9657 156.727 28.193C156.859 28.4203 156.954 28.666 157.013 28.93H156.023C155.964 28.7907 155.895 28.6623 155.814 28.545C155.741 28.4203 155.645 28.314 155.528 28.226C155.418 28.138 155.286 28.0683 155.132 28.017C154.978 27.9657 154.798 27.94 154.593 27.94C154.38 27.94 154.175 27.9803 153.977 28.061C153.779 28.1343 153.603 28.2517 153.449 28.413C153.295 28.567 153.17 28.7687 153.075 29.018C152.987 29.2673 152.943 29.568 152.943 29.92V30.14C152.943 30.514 152.987 30.8367 153.075 31.108C153.17 31.372 153.295 31.5883 153.449 31.757C153.603 31.9183 153.779 32.0393 153.977 32.12C154.175 32.1933 154.38 32.23 154.593 32.23C154.952 32.23 155.253 32.142 155.495 31.966C155.744 31.79 155.92 31.548 156.023 31.24H157.013C156.874 31.8193 156.588 32.2777 156.155 32.615C155.722 32.945 155.202 33.11 154.593 33.11ZM159.663 28.028H157.672V27.17H162.622V28.028H160.631V33H159.663V28.028ZM163.725 27.17H166.255C166.973 27.17 167.501 27.3203 167.839 27.621C168.176 27.9143 168.345 28.2957 168.345 28.765C168.345 28.8897 168.323 29.018 168.279 29.15C168.235 29.2747 168.172 29.392 168.092 29.502C168.018 29.612 167.927 29.7073 167.817 29.788C167.714 29.8687 167.597 29.931 167.465 29.975C167.824 30.063 168.095 30.2317 168.279 30.481C168.469 30.723 168.565 31.009 168.565 31.339C168.565 31.845 168.396 32.2483 168.059 32.549C167.721 32.8497 167.193 33 166.475 33H163.725V27.17ZM166.475 32.142C166.885 32.142 167.175 32.0687 167.344 31.922C167.512 31.7753 167.597 31.5663 167.597 31.295C167.597 31.0163 167.512 30.8037 167.344 30.657C167.175 30.503 166.885 30.426 166.475 30.426H164.693V32.142H166.475ZM166.255 29.634C166.673 29.634 166.962 29.5607 167.124 29.414C167.292 29.2673 167.377 29.0657 167.377 28.809C167.377 28.567 167.292 28.3763 167.124 28.237C166.962 28.0977 166.673 28.028 166.255 28.028H164.693V29.634H166.255ZM170.5 35.31C170.39 35.31 170.28 35.299 170.17 35.277V34.397C170.28 34.419 170.39 34.43 170.5 34.43C170.61 34.43 170.705 34.4117 170.786 34.375C170.866 34.3383 170.943 34.2687 171.017 34.166C171.09 34.0633 171.167 33.9167 171.248 33.726C171.336 33.5427 171.435 33.3007 171.545 33L169.07 27.17H170.148L172.04 31.9L173.756 27.17H174.79L172.59 33C172.436 33.4107 172.289 33.7627 172.15 34.056C172.01 34.3493 171.86 34.5877 171.699 34.771C171.545 34.9617 171.372 35.0973 171.182 35.178C170.991 35.266 170.764 35.31 170.5 35.31ZM175.885 27.17H176.853V31.57L179.867 27.17H180.835V33H179.867V28.6L176.853 33H175.885V27.17ZM178.36 26.455C177.788 26.455 177.37 26.334 177.106 26.092C176.842 25.8427 176.71 25.487 176.71 25.025H177.656C177.656 25.5237 177.891 25.773 178.36 25.773C178.844 25.773 179.086 25.5237 179.086 25.025H180.01C180.01 25.487 179.878 25.8427 179.614 26.092C179.35 26.334 178.932 26.455 178.36 26.455Z" fill="#2E3C59"/>
</svg>
